<?xml version="1.0" encoding="UTF-8" standalone="no"?>
<!-- Created with Inkscape (http://www.inkscape.org/) -->

<svg
   width="228.22125mm"
   height="102.60634mm"
   viewBox="0 0 228.22125 102.60634"
   version="1.1"
   id="svg1"
   inkscape:version="1.4 (86a8ad7, 2024-10-11)"
   sodipodi:docname="MecanismosSuperpuestos.svg"
   xml:space="preserve"
   xmlns:inkscape="http://www.inkscape.org/namespaces/inkscape"
   xmlns:sodipodi="http://sodipodi.sourceforge.net/DTD/sodipodi-0.dtd"
   xmlns="http://www.w3.org/2000/svg"
   xmlns:svg="http://www.w3.org/2000/svg"><sodipodi:namedview
     id="namedview1"
     pagecolor="#ffffff"
     bordercolor="#000000"
     borderopacity="0.25"
     inkscape:showpageshadow="2"
     inkscape:pageopacity="0.0"
     inkscape:pagecheckerboard="0"
     inkscape:deskcolor="#d1d1d1"
     inkscape:document-units="mm"
     inkscape:zoom="1.0721378"
     inkscape:cx="507.39748"
     inkscape:cy="188.87498"
     inkscape:window-width="1920"
     inkscape:window-height="1111"
     inkscape:window-x="2391"
     inkscape:window-y="-9"
     inkscape:window-maximized="1"
     inkscape:current-layer="layer1" /><defs
     id="defs1" /><g
     inkscape:label="Capa 1"
     inkscape:groupmode="layer"
     id="layer1"
     transform="translate(4.8732529,-61.773209)"><rect
       style="fill:#ffffff;fill-opacity:1;stroke:none;stroke-width:1"
       id="rect9"
       width="228.22125"
       height="102.60634"
       x="-4.8732529"
       y="61.773209" /><text
       fill="#2596be"
       font-family="'Cambria Math', 'Cambria Math_MSFontService', sans-serif"
       font-weight="400"
       font-size="7.14375px"
       id="text45"
       x="200.28288"
       y="88.7099"
       style="stroke-width:0.264583" /><text
       fill="#2596be"
       font-family="'Cambria Math', 'Cambria Math_MSFontService', sans-serif"
       font-weight="400"
       font-size="7.14375px"
       id="text53"
       x="200.28288"
       y="102.20365"
       style="stroke-width:0.264583" /><text
       fill="#2596be"
       font-family="'Cambria Math', 'Cambria Math_MSFontService', sans-serif"
       font-weight="400"
       font-size="7.14375px"
       id="text61"
       x="200.28288"
       y="115.43282"
       style="stroke-width:0.264583" /><text
       fill="#2596be"
       font-family="'Cambria Math', 'Cambria Math_MSFontService', sans-serif"
       font-weight="400"
       font-size="7.14375px"
       id="text69"
       x="204.20877"
       y="128.92657"
       style="stroke-width:0.264583" /><text
       fill="#2596be"
       font-family="'Cambria Math', 'Cambria Math_MSFontService', sans-serif"
       font-weight="400"
       font-size="7.14375px"
       id="text77"
       x="204.20877"
       y="142.15575"
       style="stroke-width:0.264583" /><text
       fill="#2596be"
       font-family="'Cambria Math', 'Cambria Math_MSFontService', sans-serif"
       font-weight="400"
       font-size="7.14375px"
       id="text100"
       x="233.44788"
       y="61.986988"
       style="stroke-width:0.264583" /><text
       fill="#2596be"
       font-family="'Cambria Math', 'Cambria Math_MSFontService', sans-serif"
       font-weight="400"
       font-size="7.14375px"
       id="text102"
       x="246.92839"
       y="61.986988"
       style="stroke-width:0.264583" /><text
       fill="#2596be"
       font-family="'Cambria Math', 'Cambria Math_MSFontService', sans-serif"
       font-weight="400"
       font-size="7.14375px"
       id="text114"
       x="233.29706"
       y="75.216156"
       style="stroke-width:0.264583" /><text
       fill="#2596be"
       font-family="'Cambria Math', 'Cambria Math_MSFontService', sans-serif"
       font-weight="400"
       font-size="7.14375px"
       id="text116"
       x="246.78021"
       y="75.216156"
       style="stroke-width:0.264583" /><g
       id="g48"
       transform="translate(6.0431643,-6.5599895)"><g
         id="g46"><path
           d="M 42.309753,108.26049 H 18.988584 v 42.06875 H 182.2365 v -4.00685 L 123.32041,118.27656 H 72.293923 Z"
           fill="#d95319"
           fill-rule="evenodd"
           fill-opacity="0.34902"
           id="path1"
           style="stroke-width:0.264583" /><path
           d="m 54.971917,111.82972 -6.443398,-12.035895 -1.758685,0.928955 6.442868,12.03563 z"
           fill="#0072bd"
           fill-rule="evenodd"
           id="path31"
           style="stroke-width:0.264583" /><path
           d="m 55.104209,111.96201 -6.443398,-12.035893 -1.758685,0.928953 6.442868,12.03563 1.759215,-0.92869"
           stroke="#000000"
           stroke-width="0.220472"
           stroke-linecap="square"
           stroke-miterlimit="8"
           fill="none"
           fill-rule="evenodd"
           id="path32" /><path
           d="M 186.20525,153.50424 109.35358,90.797992 47.828167,100.12773 Z"
           fill="#d95319"
           fill-rule="evenodd"
           id="path33"
           style="stroke-width:0.264583" /><path
           d="M 47.960459,100.26002 109.48587,90.930284 186.33754,153.63653 47.960459,100.26002"
           stroke="#000000"
           stroke-width="0.220472"
           stroke-linecap="square"
           stroke-miterlimit="8"
           fill="none"
           fill-rule="evenodd"
           id="path34" /><path
           d="m 133.81775,144.50709 -23.56379,-53.973681 -1.83621,0.795073 23.56432,53.973678 z"
           fill="#77ac30"
           fill-rule="evenodd"
           id="path35"
           style="stroke-width:0.264583" /><path
           d="m 19.120903,108.39278 h 23.321142 l 29.98417,10.01607 H 123.4527 l 58.91609,28.0461 v 4.00658 H 19.120903 Z"
           stroke="#000000"
           stroke-width="0.220472"
           stroke-linejoin="round"
           stroke-miterlimit="10"
           fill="none"
           fill-rule="evenodd"
           id="path36" /><path
           d="m 133.95004,144.63938 -23.56379,-53.97368 -1.83621,0.795073 23.56432,53.973677 1.83568,-0.79507"
           stroke="#000000"
           stroke-width="0.220472"
           stroke-linecap="square"
           stroke-miterlimit="8"
           fill="none"
           fill-rule="evenodd"
           id="path37" /><path
           d="m 72.169833,131.01545 2.1e-5,-5.90987 h -0.529166 l -2.2e-5,5.90987 z m 0.793771,-5.55707 -1.058326,-2.11667 -1.05834,2.11664 z"
           fill="#ff0000"
           id="path116"
           style="stroke-width:0.264583" /><path
           d="m 71.905249,131.27924 6.008265,2e-5 2.7e-5,-0.52916 -6.00829,-2e-5 z m 5.655496,0.79377 2.116667,-1.05832 -2.116667,-1.05834 z"
           fill="#00b050"
           id="path117"
           style="stroke-width:0.264583" /><text
           fill="#ff0000"
           font-family="'Cambria Math', 'Cambria Math_MSFontService', sans-serif"
           font-weight="400"
           font-size="5.02708px"
           id="text117"
           x="64.567299"
           y="125.45841"
           style="stroke-width:0.264583">𝑦</text><text
           fill="#00b050"
           font-family="'Cambria Math', 'Cambria Math_MSFontService', sans-serif"
           font-weight="400"
           font-size="5.02708px"
           id="text118"
           x="76.922279"
           y="136.57092"
           style="stroke-width:0.264583">𝑥</text></g><g
         id="g47"><path
           style="font-variation-settings:normal;vector-effect:none;fill:#39489e;fill-opacity:1;stroke:#000000;stroke-width:0.7;stroke-linecap:butt;stroke-linejoin:miter;stroke-miterlimit:4;stroke-dasharray:none;stroke-dashoffset:0;stroke-opacity:1;-inkscape-stroke:none;stop-color:#000000"
           d="m 182.08053,154.63022 c -1.47367,-0.0711 -4.69499,-0.22295 -7.15852,-0.33751 -4.94572,-0.22997 -5.13675,-0.27074 -6.11137,-1.30472 -0.25756,-0.27326 -5.58436,-7.16185 -11.83729,-15.30799 -9.3184,-12.13969 -14.41323,-18.65792 -15.00907,-19.20239 -0.0448,-0.041 -0.95076,-0.98088 -2.01326,-2.0888 -1.06249,-1.10789 -2.7691,-2.77433 -3.79248,-3.70315 -1.02338,-0.92887 -2.02817,-1.84717 -2.23285,-2.04072 -0.85105,-0.80481 -4.85319,-3.8235 -7.07063,-5.33318 C 116.37824,98.178931 105.32296,94.010847 94.106783,92.964988 90.515279,92.630091 87.058112,92.588194 73.862392,92.719622 62.336703,92.83438 61.761066,92.853175 60.806606,93.1436 c -4.2367,1.289482 -7.368009,4.386041 -8.383049,8.29004 -0.419757,1.61441 -0.854508,2.47221 -1.599413,3.15569 -2.570668,2.35868 -6.703913,0.50398 -6.69286,-3.00326 0.0047,-1.44961 1.136752,-4.932462 2.153497,-6.624632 1.373554,-2.286033 2.528834,-3.749539 4.011597,-5.08186 3.344537,-3.00523 7.340918,-4.774101 11.729999,-5.191902 2.134947,-0.203232 29.313017,-0.212456 31.484986,-0.01108 10.539157,0.979027 18.953217,3.378281 27.723727,7.905379 9.72711,5.020864 18.5121,12.549815 25.00458,21.429575 1.15407,1.57842 12.24164,17.93402 24.04432,35.46849 1.21219,1.80087 1.82152,2.37463 2.80522,2.64144 0.41208,0.11175 12.88627,1.18517 13.80009,1.1875 0.13874,3.6e-4 0.18127,0.2023 0.14884,0.70756 l -0.0454,0.70708 -1.11641,0.0177 c -0.61403,0.009 -2.32214,-0.0404 -3.79583,-0.11153 z M 48.710777,102.78534 c 0.324533,-0.0922 0.8137,-0.80261 0.8137,-1.18159 0,-0.96948 -1.097096,-1.632219 -1.969816,-1.18997 -0.940837,0.4768 -0.980303,1.73662 -0.07174,2.28918 0.262645,0.15972 0.578254,0.26297 0.701339,0.22942 0.123147,-0.0336 0.359995,-0.0996 0.526489,-0.14712 z m 61.858013,-9.570392 c 0.91299,-0.539323 0.64092,-2.167335 -0.39467,-2.36161 -1.31825,-0.247303 -2.1271,0.884655 -1.45053,2.029981 0.36997,0.626315 1.11857,0.760848 1.8452,0.331629 z"
           id="path39"
           sodipodi:nodetypes="cssscsssssccsscscscsssssscccccscscccssss" /><path
           d="m 109.97431,88.221154 c -1.09346,0.0023 -1.8534,0.301023 -2.69157,1.058255 -0.84474,0.763171 -1.22298,1.750447 -1.15433,3.013132 0.0541,0.993928 0.30226,1.564116 11.71949,26.901939 6.41546,14.23761 11.81377,26.17697 11.99622,26.53193 0.54566,1.0615 1.44592,1.84057 2.49465,2.1588 1.07685,0.32662 2.6591,-0.0297 3.56159,-0.80224 0.29862,-0.25561 0.77681,-0.7829 0.95545,-1.2224 0.31597,-0.77738 0.63295,-2.18734 0.41628,-2.78736 l -11.72872,-26.02996 c -6.45079,-14.31649 -11.85111,-26.270263 -12.00071,-26.563851 -0.74853,-1.46903 -2.00019,-2.260954 -3.56859,-2.258245 z m -0.10619,2.606131 c 0.13277,-0.0102 0.27351,-0.0023 0.42044,0.02493 1.03153,0.193516 1.31518,1.750424 0.41568,2.281773 -0.73136,0.432024 -1.44984,0.279422 -1.80699,-0.383756 -0.49549,-0.92008 0.0414,-1.852027 0.97087,-1.92295 z"
           id="path41"
           style="fill:#39489e;fill-opacity:1;stroke:#000000;stroke-width:0.7;stroke-dasharray:none;stroke-opacity:1"
           sodipodi:nodetypes="cscsscsscssccscssss" /><path
           d="m 47.926334,98.011794 c -0.311007,-0.0076 -0.613906,0.0228 -0.89104,0.0979 -1.164166,0.315024 -2.256292,1.346745 -2.570902,2.428856 -0.198587,0.68308 -0.176102,1.76101 0.04977,2.39053 0.101437,0.2827 1.549511,2.76921 3.21818,5.52542 3.242427,5.35562 3.816993,6.12528 4.840017,6.48635 0.726844,0.25654 1.919496,0.2657 2.640098,0.0202 0.782944,-0.26677 1.624973,-1.04084 2.027779,-1.86412 0.429549,-0.87798 0.461732,-2.07817 0.07892,-2.9436 -0.442313,-0.99993 -6.398208,-10.682956 -6.846916,-11.131664 -0.606508,-0.606515 -1.612876,-0.98499 -2.545895,-1.009754 z m 0.234533,2.528406 c 0.216321,0.0156 0.357301,0.10469 0.58124,0.32875 0.296409,0.29639 0.358008,0.45291 0.327281,0.8313 -0.03969,0.48845 -0.233383,0.77254 -0.687825,1.00879 -0.705934,0.36704 -1.461871,-0.12267 -1.512823,-0.97989 -0.02744,-0.46175 0.02139,-0.61306 0.27411,-0.8505 0.176913,-0.16618 0.504194,-0.30709 0.770858,-0.33189 0.09472,-0.01 0.175054,-0.0122 0.247159,-0.006 z"
           id="path43"
           sodipodi:nodetypes="ssssscsssssssccssssss"
           style="font-variation-settings:normal;vector-effect:none;fill:#39489e;fill-opacity:1;stroke:#000000;stroke-width:0.7;stroke-linecap:butt;stroke-linejoin:miter;stroke-miterlimit:4;stroke-dasharray:none;stroke-dashoffset:0;stroke-opacity:1;-inkscape-stroke:none;stop-color:#000000" /></g></g></g></svg>
